<mxfile host="app.diagrams.net" modified="2023-04-23T16:21:10.861Z" agent="Mozilla/5.0 (Windows NT 10.0; Win64; x64) AppleWebKit/537.36 (KHTML, like Gecko) Chrome/112.0.0.0 Safari/537.36" etag="-umjBcHpEguveTFNV28S" version="21.1.8" type="device">
  <diagram name="Page-1" id="jNWdVCCr6UgHfV_4KWwQ">
    <mxGraphModel dx="1195" dy="672" grid="1" gridSize="10" guides="1" tooltips="1" connect="1" arrows="1" fold="1" page="1" pageScale="1" pageWidth="827" pageHeight="1169" math="0" shadow="0">
      <root>
        <mxCell id="0" />
        <mxCell id="1" parent="0" />
        <mxCell id="-Gym5UrpY2Ay8UnUEYzZ-29" style="edgeStyle=orthogonalEdgeStyle;rounded=0;orthogonalLoop=1;jettySize=auto;html=1;entryX=0.508;entryY=0.001;entryDx=0;entryDy=0;entryPerimeter=0;exitX=0.5;exitY=0.875;exitDx=0;exitDy=0;exitPerimeter=0;curved=1;" edge="1" parent="1" source="-Gym5UrpY2Ay8UnUEYzZ-4" target="-Gym5UrpY2Ay8UnUEYzZ-12">
          <mxGeometry relative="1" as="geometry">
            <Array as="points">
              <mxPoint x="380" y="310" />
              <mxPoint x="701" y="310" />
            </Array>
          </mxGeometry>
        </mxCell>
        <mxCell id="-Gym5UrpY2Ay8UnUEYzZ-30" style="edgeStyle=orthogonalEdgeStyle;rounded=0;orthogonalLoop=1;jettySize=auto;html=1;entryX=0.489;entryY=-0.004;entryDx=0;entryDy=0;entryPerimeter=0;curved=1;" edge="1" parent="1" target="-Gym5UrpY2Ay8UnUEYzZ-11">
          <mxGeometry relative="1" as="geometry">
            <mxPoint x="380" y="270" as="sourcePoint" />
            <Array as="points">
              <mxPoint x="380" y="310" />
              <mxPoint x="539" y="310" />
            </Array>
          </mxGeometry>
        </mxCell>
        <mxCell id="-Gym5UrpY2Ay8UnUEYzZ-31" style="edgeStyle=orthogonalEdgeStyle;rounded=0;orthogonalLoop=1;jettySize=auto;html=1;entryX=0.5;entryY=-0.01;entryDx=0;entryDy=0;entryPerimeter=0;exitX=0.506;exitY=0.871;exitDx=0;exitDy=0;exitPerimeter=0;" edge="1" parent="1" source="-Gym5UrpY2Ay8UnUEYzZ-4" target="-Gym5UrpY2Ay8UnUEYzZ-10">
          <mxGeometry relative="1" as="geometry" />
        </mxCell>
        <mxCell id="-Gym5UrpY2Ay8UnUEYzZ-32" style="edgeStyle=orthogonalEdgeStyle;rounded=0;orthogonalLoop=1;jettySize=auto;html=1;entryX=0.479;entryY=-0.007;entryDx=0;entryDy=0;entryPerimeter=0;curved=1;" edge="1" parent="1" target="-Gym5UrpY2Ay8UnUEYzZ-5">
          <mxGeometry relative="1" as="geometry">
            <mxPoint x="380" y="270" as="sourcePoint" />
            <Array as="points">
              <mxPoint x="380" y="310" />
              <mxPoint x="218" y="310" />
            </Array>
          </mxGeometry>
        </mxCell>
        <mxCell id="-Gym5UrpY2Ay8UnUEYzZ-33" style="edgeStyle=orthogonalEdgeStyle;rounded=0;orthogonalLoop=1;jettySize=auto;html=1;entryX=0.439;entryY=-0.017;entryDx=0;entryDy=0;entryPerimeter=0;curved=1;exitX=0.5;exitY=0.875;exitDx=0;exitDy=0;exitPerimeter=0;" edge="1" parent="1" source="-Gym5UrpY2Ay8UnUEYzZ-4" target="-Gym5UrpY2Ay8UnUEYzZ-13">
          <mxGeometry relative="1" as="geometry">
            <Array as="points">
              <mxPoint x="380" y="310" />
              <mxPoint x="53" y="310" />
            </Array>
          </mxGeometry>
        </mxCell>
        <mxCell id="-Gym5UrpY2Ay8UnUEYzZ-4" value="&lt;font size=&quot;1&quot; style=&quot;&quot;&gt;&lt;b style=&quot;font-size: 19px;&quot;&gt;isel.seaspot&lt;/b&gt;&lt;/font&gt;" style="strokeWidth=2;html=1;shape=mxgraph.flowchart.document2;whiteSpace=wrap;size=0.25;fillColor=#FFD966;fontColor=#000000;" vertex="1" parent="1">
          <mxGeometry x="320" y="200" width="120" height="80" as="geometry" />
        </mxCell>
        <mxCell id="-Gym5UrpY2Ay8UnUEYzZ-5" value="" style="image;aspect=fixed;html=1;points=[];align=center;fontSize=12;image=img/lib/azure2/general/Folder_Blank.svg;" vertex="1" parent="1">
          <mxGeometry x="160" y="340" width="120" height="97.39" as="geometry" />
        </mxCell>
        <mxCell id="-Gym5UrpY2Ay8UnUEYzZ-10" value="" style="image;aspect=fixed;html=1;points=[];align=center;fontSize=12;image=img/lib/azure2/general/Folder_Blank.svg;" vertex="1" parent="1">
          <mxGeometry x="320" y="340" width="120" height="97.39" as="geometry" />
        </mxCell>
        <mxCell id="-Gym5UrpY2Ay8UnUEYzZ-24" style="edgeStyle=orthogonalEdgeStyle;rounded=0;orthogonalLoop=1;jettySize=auto;html=1;entryX=0.497;entryY=0.016;entryDx=0;entryDy=0;entryPerimeter=0;curved=1;" edge="1" parent="1" source="-Gym5UrpY2Ay8UnUEYzZ-11" target="-Gym5UrpY2Ay8UnUEYzZ-19">
          <mxGeometry relative="1" as="geometry" />
        </mxCell>
        <mxCell id="-Gym5UrpY2Ay8UnUEYzZ-28" style="edgeStyle=orthogonalEdgeStyle;rounded=0;orthogonalLoop=1;jettySize=auto;html=1;entryX=0.506;entryY=0.004;entryDx=0;entryDy=0;entryPerimeter=0;curved=1;" edge="1" parent="1" source="-Gym5UrpY2Ay8UnUEYzZ-11" target="-Gym5UrpY2Ay8UnUEYzZ-26">
          <mxGeometry relative="1" as="geometry" />
        </mxCell>
        <mxCell id="-Gym5UrpY2Ay8UnUEYzZ-11" value="" style="image;aspect=fixed;html=1;points=[];align=center;fontSize=12;image=img/lib/azure2/general/Folder_Blank.svg;" vertex="1" parent="1">
          <mxGeometry x="480" y="340" width="120" height="97.39" as="geometry" />
        </mxCell>
        <mxCell id="-Gym5UrpY2Ay8UnUEYzZ-12" value="" style="image;aspect=fixed;html=1;points=[];align=center;fontSize=12;image=img/lib/azure2/general/Folder_Blank.svg;" vertex="1" parent="1">
          <mxGeometry x="640" y="340" width="120" height="97.39" as="geometry" />
        </mxCell>
        <mxCell id="-Gym5UrpY2Ay8UnUEYzZ-13" value="" style="image;aspect=fixed;html=1;points=[];align=center;fontSize=12;image=img/lib/azure2/general/Folder_Blank.svg;" vertex="1" parent="1">
          <mxGeometry y="340" width="120" height="97.39" as="geometry" />
        </mxCell>
        <mxCell id="-Gym5UrpY2Ay8UnUEYzZ-15" value="&lt;font style=&quot;font-size: 19px;&quot; color=&quot;#000000&quot;&gt;&lt;b&gt;activities&lt;/b&gt;&lt;/font&gt;" style="text;html=1;strokeColor=none;fillColor=none;align=center;verticalAlign=middle;whiteSpace=wrap;rounded=0;" vertex="1" parent="1">
          <mxGeometry x="20" y="380" width="80" height="30" as="geometry" />
        </mxCell>
        <mxCell id="-Gym5UrpY2Ay8UnUEYzZ-16" value="&lt;font style=&quot;font-size: 19px;&quot; color=&quot;#000000&quot;&gt;&lt;b&gt;bluetooth&lt;/b&gt;&lt;/font&gt;" style="text;html=1;strokeColor=none;fillColor=none;align=center;verticalAlign=middle;whiteSpace=wrap;rounded=0;" vertex="1" parent="1">
          <mxGeometry x="180" y="380" width="90" height="30" as="geometry" />
        </mxCell>
        <mxCell id="-Gym5UrpY2Ay8UnUEYzZ-17" value="&lt;font style=&quot;font-size: 19px;&quot; color=&quot;#000000&quot;&gt;&lt;b&gt;screens&lt;/b&gt;&lt;/font&gt;" style="text;html=1;strokeColor=none;fillColor=none;align=center;verticalAlign=middle;whiteSpace=wrap;rounded=0;" vertex="1" parent="1">
          <mxGeometry x="340" y="380" width="90" height="30" as="geometry" />
        </mxCell>
        <mxCell id="-Gym5UrpY2Ay8UnUEYzZ-18" value="&lt;font style=&quot;font-size: 19px;&quot; color=&quot;#000000&quot;&gt;&lt;b&gt;ui&lt;/b&gt;&lt;/font&gt;" style="text;html=1;strokeColor=none;fillColor=none;align=center;verticalAlign=middle;whiteSpace=wrap;rounded=0;" vertex="1" parent="1">
          <mxGeometry x="500" y="380" width="90" height="30" as="geometry" />
        </mxCell>
        <mxCell id="-Gym5UrpY2Ay8UnUEYzZ-19" value="" style="image;html=1;points=[];align=center;fontSize=12;image=img/lib/azure2/general/Folder_Blank.svg;" vertex="1" parent="1">
          <mxGeometry x="420" y="515" width="98.57" height="90" as="geometry" />
        </mxCell>
        <mxCell id="-Gym5UrpY2Ay8UnUEYzZ-21" value="&lt;font style=&quot;font-size: 19px;&quot; color=&quot;#000000&quot;&gt;&lt;b&gt;elements&lt;/b&gt;&lt;/font&gt;" style="text;html=1;strokeColor=none;fillColor=none;align=center;verticalAlign=middle;whiteSpace=wrap;rounded=0;" vertex="1" parent="1">
          <mxGeometry x="424.29" y="555" width="90" height="30" as="geometry" />
        </mxCell>
        <mxCell id="-Gym5UrpY2Ay8UnUEYzZ-22" value="&lt;font style=&quot;font-size: 19px;&quot; color=&quot;#000000&quot;&gt;&lt;b&gt;theme&lt;/b&gt;&lt;/font&gt;" style="text;html=1;strokeColor=none;fillColor=none;align=center;verticalAlign=middle;whiteSpace=wrap;rounded=0;" vertex="1" parent="1">
          <mxGeometry x="577.1400000000001" y="555" width="90" height="30" as="geometry" />
        </mxCell>
        <mxCell id="-Gym5UrpY2Ay8UnUEYzZ-23" value="&lt;font style=&quot;font-size: 19px;&quot; color=&quot;#000000&quot;&gt;&lt;b&gt;utils&lt;/b&gt;&lt;/font&gt;" style="text;html=1;strokeColor=none;fillColor=none;align=center;verticalAlign=middle;whiteSpace=wrap;rounded=0;" vertex="1" parent="1">
          <mxGeometry x="655" y="380" width="90" height="30" as="geometry" />
        </mxCell>
        <mxCell id="-Gym5UrpY2Ay8UnUEYzZ-26" value="" style="image;aspect=fixed;html=1;points=[];align=center;fontSize=12;image=img/lib/azure2/general/Folder_Blank.svg;" vertex="1" parent="1">
          <mxGeometry x="560" y="520" width="98.57" height="80" as="geometry" />
        </mxCell>
        <mxCell id="-Gym5UrpY2Ay8UnUEYzZ-27" value="&lt;font style=&quot;font-size: 19px;&quot; color=&quot;#000000&quot;&gt;&lt;b&gt;theme&lt;/b&gt;&lt;/font&gt;" style="text;html=1;strokeColor=none;fillColor=none;align=center;verticalAlign=middle;whiteSpace=wrap;rounded=0;" vertex="1" parent="1">
          <mxGeometry x="564.2800000000001" y="555" width="90" height="30" as="geometry" />
        </mxCell>
      </root>
    </mxGraphModel>
  </diagram>
</mxfile>
